<?xml version="1.0" encoding="UTF-8" standalone="no"?>
<!-- Created with Inkscape (http://www.inkscape.org/) -->

<svg
   width="3.9191418mm"
   height="2.2381439mm"
   viewBox="0 0 3.9191418 2.2381439"
   version="1.1"
   id="svg5"
   inkscape:version="1.2.2 (b0a8486541, 2022-12-01, custom)"
   sodipodi:docname="logo website"
   xmlns:inkscape="http://www.inkscape.org/namespaces/inkscape"
   xmlns:sodipodi="http://sodipodi.sourceforge.net/DTD/sodipodi-0.dtd"
   xmlns="http://www.w3.org/2000/svg"
   xmlns:svg="http://www.w3.org/2000/svg">
  <sodipodi:namedview
     id="namedview7"
     pagecolor="#ffffff"
     bordercolor="#000000"
     borderopacity="0.25"
     inkscape:showpageshadow="2"
     inkscape:pageopacity="0.0"
     inkscape:pagecheckerboard="0"
     inkscape:deskcolor="#d1d1d1"
     inkscape:document-units="mm"
     showgrid="false"
     inkscape:lockguides="false"
     inkscape:zoom="11.313709"
     inkscape:cx="140.22811"
     inkscape:cy="157.90578"
     inkscape:window-width="1920"
     inkscape:window-height="960"
     inkscape:window-x="0"
     inkscape:window-y="0"
     inkscape:window-maximized="1"
     inkscape:current-layer="layer1" />
  <defs
     id="defs2" />
  <g
     inkscape:label="Layer 1"
     inkscape:groupmode="layer"
     id="layer1"
     transform="translate(-26.209687,-44.729781)">
    <g
       id="g1276"
       transform="translate(-4.2657926,-0.44939117)"
       inkscape:export-filename="../8fc5b59f/logo.svg"
       inkscape:export-xdpi="95.638527"
       inkscape:export-ydpi="95.638527">
      <g
         id="g586"
         transform="translate(1.0532873,3.3440273)"
         style="stroke:#d7f4ee;stroke-width:0;stroke-dasharray:none">
        <g
           id="g481"
           transform="rotate(179.32934,28.272912,42.954306)"
           style="fill:#00aad4;stroke:#d7f4ee;stroke-width:0;stroke-dasharray:none">
          <path
             style="font-size:3.175px;font-family:Cantarell;-inkscape-font-specification:Cantarell;fill:#00aad4;stroke:#d7f4ee;stroke-width:0;stroke-dasharray:none"
             d="m 26.255206,41.846586 -0.993738,1.047998 v -0.0031 c -3.27e-4,7.68e-4 -7.15e-4,0.0013 -0.001,0.0021 -0.001,0.002 -0.002,0.0042 -0.0031,0.0062 0.0012,0.0031 0.0024,0.0062 0.0036,0.0093 6.02e-4,0.0025 0.0022,0.005 0.0036,0.0078 l 1.009758,1.133264 h 0.345715 L 25.57256,42.888462 26.5787,41.846665 Z"
             id="path421" />
          <rect
             style="fill:#00aad4;stroke:#d7f4ee;stroke-width:0;stroke-dasharray:none"
             id="rect477"
             width="0.27516875"
             height="2.2073596"
             x="25.163004"
             y="41.815224" />
        </g>
        <path
           style="font-size:3.175px;font-family:Cantarell;-inkscape-font-specification:Cantarell;stroke:#d7f4ee;stroke-width:0;stroke-dasharray:none"
           d="m 29.812824,44.056506 0.981403,-1.059558 3.7e-5,0.0031 c 3.18e-4,-7.72e-4 6.99e-4,-0.0013 9.75e-4,-0.0021 9.77e-4,-0.002 0.002,-0.0042 0.003,-0.0062 -0.0012,-0.0031 -0.0025,-0.0062 -0.0037,-0.0093 -6.32e-4,-0.0025 -0.0023,-0.005 -0.0037,-0.0078 l -1.022954,-1.121367 -0.345691,0.004 1.061006,1.149346 -0.993877,1.053502 z"
           id="path483" />
        <rect
           style="fill:#000000;stroke:#d7f4ee;stroke-width:0;stroke-dasharray:none"
           id="rect485"
           width="0.27516875"
           height="2.2131894"
           x="-30.546238"
           y="-44.417492"
           transform="rotate(179.32934)" />
        <g
           id="g514"
           transform="rotate(-0.61410993,31.532044,-534.23676)"
           style="fill:#00aad4;stroke:#d7f4ee;stroke-width:0;stroke-dasharray:none">
          <path
             style="font-size:3.175px;font-family:Cantarell;-inkscape-font-specification:Cantarell;fill:#00aad4;stroke:#d7f4ee;stroke-width:0;stroke-dasharray:none"
             d="m 26.255206,41.846586 -0.993738,1.047998 v -0.0031 c -3.27e-4,7.68e-4 -7.15e-4,0.0013 -0.001,0.0021 -0.001,0.002 -0.002,0.0042 -0.0031,0.0062 0.0012,0.0031 0.0024,0.0062 0.0036,0.0093 6.02e-4,0.0025 0.0022,0.005 0.0036,0.0078 l 1.009758,1.133264 h 0.345715 L 25.57256,42.888462 26.5787,41.846665 Z"
             id="path510" />
          <rect
             style="fill:#00aad4;stroke:#d7f4ee;stroke-width:0;stroke-dasharray:none"
             id="rect512"
             width="0.27516875"
             height="2.2073596"
             x="25.163004"
             y="41.815224" />
        </g>
        <path
           style="font-size:3.175px;font-family:Cantarell;-inkscape-font-specification:Cantarell;stroke:#d7f4ee;stroke-width:0;stroke-dasharray:none"
           d="m 32.952852,41.856864 -0.982448,1.058589 -3.3e-5,-0.0031 c -3.19e-4,7.71e-4 -7.01e-4,0.0013 -9.78e-4,0.0021 -9.78e-4,0.002 -0.002,0.0042 -0.003,0.0062 0.0012,0.0031 0.0025,0.0062 0.0037,0.0093 6.29e-4,0.0025 0.0023,0.005 0.0037,0.0078 l 1.021846,1.122376 0.345695,-0.0037 -1.059871,-1.150392 0.994917,-1.052521 z"
           id="path516" />
        <rect
           style="fill:#000000;stroke:#d7f4ee;stroke-width:0;stroke-dasharray:none"
           id="rect518"
           width="0.27516875"
           height="2.2131894"
           x="31.215899"
           y="42.184063"
           transform="rotate(-0.61410993)" />
      </g>
    </g>
  </g>
</svg>
